<?xml version="1.0" encoding="UTF-8" standalone="no"?>
<!-- Created with Inkscape (http://www.inkscape.org/) -->

<svg
   width="130.87292mm"
   height="53.419052mm"
   viewBox="0 0 130.87292 53.419052"
   version="1.1"
   id="svg1"
   xml:space="preserve"
   xmlns="http://www.w3.org/2000/svg"
   xmlns:svg="http://www.w3.org/2000/svg"><defs
     id="defs1" /><g
     id="layer1"
     transform="translate(-36.89446,-97.743108)"><path
       style="fill:#a05a2c;stroke-width:0.503188"
       d="m 97.538668,133.56027 c -5.66439,-0.41306 -13.025673,-1.62053 -21.358709,-3.50347 -3.850255,-0.87002 -6.094216,-1.53673 -8.663248,-2.57399 -7.048955,-2.84607 -13.059241,-7.62339 -17.680169,-14.05326 -2.04226,-2.84173 -4.379448,-7.15514 -5.867894,-10.82955 -0.633775,-1.56454 -0.708835,-2.40246 -0.288943,-3.225509 0.296562,-0.58132 0.937396,-1.166167 1.566781,-1.429905 0.641047,-0.268638 120.052624,-0.268638 120.693674,0 1.11274,0.466291 1.82721,1.490675 1.82721,2.619804 0,0.80744 -0.57801,2.30744 -2.1529,5.58694 -4.89448,10.19218 -12.38204,17.47057 -21.94454,21.33148 -2.56903,1.03726 -4.81299,1.70397 -8.66325,2.57399 -8.56953,1.93638 -15.68203,3.0913 -21.62495,3.51142 -2.17608,0.15383 -13.703832,0.14805 -15.843062,-0.008 z"
       id="path2" /><path
       style="fill:#5599ff;stroke:none;stroke-width:0.529167"
       d="m 26.439525,134.43166 c -0.02231,-0.0374 -0.03747,-0.0781 -0.04617,-0.12336 -0.0083,-0.0434 -0.01033,-0.0904 -0.0061,-0.14087 0.0084,-0.10037 0.04143,-0.21456 0.09868,-0.34229 l 0,0 c 0.113173,-0.25212 0.320565,-0.55585 0.619399,-0.90805 l 0,0 c 0.578818,-0.68217 1.498371,-1.54219 2.740834,-2.54881 l 0,0 c 2.260586,-1.83169 5.675311,-4.21493 10.019575,-6.76265 l 0,0 c 3.618917,-2.12482 8.172276,-4.53747 13.312622,-6.62138 l 0,0 c 3.78053,-1.56486 8.426947,-3.17529 13.66697,-3.66736 l 0,0 c 5.827889,-0.44832 11.631619,0.51595 17.264485,2.33395 3.682439,1.16396 7.22393,2.57854 10.762916,4.12051 1.742656,0.75929 3.455657,1.53666 5.111767,2.29295 5.146627,2.32688 9.488627,4.39143 14.052647,5.87561 l 0,0 c 4.27976,1.31392 7.98696,2.1316 11.30746,1.58149 l 0,0 c 8.14862,-1.10119 15.75949,-5.45566 20.50991,-8.35651 v 0 c 0,0 1e-5,-1e-5 1e-5,-1e-5 l 0,0 c 2.96307,-1.82711 5.28948,-3.42521 7.00733,-4.49809 l 0,0 c 0.90992,-0.56843 1.65397,-0.99241 2.21431,-1.23158 l 0,0 c 0.28875,-0.12325 0.53286,-0.1986 0.72919,-0.22223 l 0,0 c 0,0 0,0 0,0 0.099,-0.0114 0.1869,-0.01 0.26268,0.005 l 0,0 c 0,0 0,0 0,0 0.0894,0.0517 0.13865,0.0747 0.16568,0.0847 0.0264,0.01 0.0315,0.007 0.0321,0.007 0,0 0,0 0,0 0,0 0,0 0,0 0,0 0,0 0,0 0,0 0,0 0,0 0,0 0,0 0,0 0,0 0,0 0,0 5e-5,-3e-5 4e-5,-2e-5 4e-5,-2e-5 0,0 1e-5,-1e-5 -2e-5,4e-5 0,0 0,0 0,0 0,0 0,0 0,0 0,0 0,0 0,0 0,0 0,0 0,0 0,0 0,0 0,0 0,0 0,0 0,0 -3.8e-4,6.5e-4 -0.002,0.006 0.0109,0.0309 0.0136,0.0254 0.0432,0.071 0.10642,0.15242 0,0 0,10e-6 0,10e-6 l 0,0 c 0.0241,0.0742 0.0346,0.16262 0.0317,0.26548 0,0 0,0 0,0 l 0,0 c -0.005,0.20224 -0.0616,0.45706 -0.17052,0.76261 l 0,0 c -0.21247,0.59574 -0.6227,1.37671 -1.24023,2.31731 l 0,0 c -1.15036,1.75252 -3.05311,4.1038 -5.75413,6.68655 l 0,0 c 0,0 0,0 0,0 l 0,0 c -4.37434,4.21842 -11.97514,10.09396 -22.27859,12.52194 l 0,0 c -5.26423,1.08747 -10.6176,0.5221 -15.6908,-0.99285 l 0,0 c -5.37441,-1.52264 -10.27412,-3.64226 -15.368158,-5.90649 -1.680441,-0.73947 -3.356984,-1.48763 -5.033891,-2.22009 -3.399214,-1.48473 -6.60594,-2.81778 -9.819009,-3.89615 -4.917351,-1.61272 -9.40334,-2.64611 -13.654095,-2.48317 l 0,0 c -3.734605,0.0542 -7.794917,1.17188 -11.476671,2.23845 l 0,0 c -4.806878,1.42681 -9.532034,3.20669 -13.263593,4.62991 -4.678914,1.78644 -8.19699,3.1889 -11.039637,4.15969 l 0,0 c -1.486018,0.50752 -2.680135,0.85708 -3.548155,1.01573 l 0,0 c -0.448711,0.082 -0.812088,0.11314 -1.084884,0.0898 l 0,0 c -0.138631,-0.0118 -0.254178,-0.0378 -0.345907,-0.0783 -0.04622,-0.0204 -0.08644,-0.0446 -0.120567,-0.0725 -0.03557,-0.0291 -0.06418,-0.0618 -0.08649,-0.0992 z"
       id="path1"
       transform="matrix(0.96270784,0,0,1.1567788,17.036184,-20.939354)" /><path
       style="fill:#003380;stroke:none;stroke-width:0.529167"
       d="m 19.937608,131.59732 c -0.429296,-1.17404 5.581541,-4.58837 15.89896,-9.29336 0,0 3e-6,0 3e-6,0 4.230252,-1.7666 9.46175,-3.72472 15.250069,-5.38852 4.347942,-1.2643 9.502286,-2.52459 15.062559,-2.88969 6.079202,-0.34829 12.158577,0.42099 18.275047,1.85171 2.846769,0.65653 5.659929,1.42573 8.481517,2.26975 3.044805,0.91078 6.039856,1.8912 8.887087,2.83192 5.67815,1.86257 10.46886,3.5104 15.48174,4.68951 4.69419,1.04395 8.65507,1.6833 12.30052,1.12078 8.41965,-1.16197 16.15329,-4.12542 21.19663,-6.14249 5.98076,-2.84168 9.77074,-4.16591 10.32181,-3.40398 0,0 0,0 0,0 0,0 0,0 0,0 0,0 0,0 0,0 0,0 0,0 0,0 0,0 1e-5,0 1e-5,0 0,0 0,0 0,0 0,0 0,0 0,0 0.005,0.007 0.005,0.007 0.005,0.007 -4e-5,-6e-5 -6e-5,-1.3e-4 0.005,0.007 0,0 0,0 0,0 0,0 0,0 0,0 0,0 0,0 0,0 0,0 0,0 0,0 0,0 0,0 0,0 0,0 0,0 0,0 0,0 0,0 0,0 0.51369,0.78717 -2.29247,3.56909 -7.73946,7.84994 -4.78502,3.30936 -12.48119,7.61773 -22.21536,9.92625 -5.20132,1.12459 -10.51201,0.83252 -15.78802,-0.20865 -5.64621,-1.05131 -10.952,-2.64826 -16.588956,-4.40992 -2.83711,-0.88021 -5.863254,-1.84182 -8.731089,-2.70262 -2.697902,-0.80979 -5.31207,-1.5485 -7.905969,-2.18307 -5.597973,-1.34919 -10.703008,-2.22334 -15.618367,-2.14149 -4.480786,0.0292 -9.215842,0.87306 -13.459404,1.68451 -5.432438,1.05086 -10.834193,2.37103 -15.072793,3.40703 0,0 -3e-6,0 -3e-6,0 -10.826019,3.02675 -17.616723,4.29242 -18.045861,3.11881 z"
       id="path1-3"
       transform="matrix(0.90636224,0,0,1.445738,18.843286,-45.098636)" /></g></svg>
