<?xml version="1.0" encoding="UTF-8" standalone="no"?>
<!-- Created with Inkscape (http://www.inkscape.org/) -->

<svg
   width="25.929157mm"
   height="9.2604332mm"
   viewBox="0 0 25.929157 9.2604332"
   version="1.1"
   id="svg1"
   xml:space="preserve"
   sodipodi:docname="favico.svg"
   inkscape:version="1.3.2 (091e20e, 2023-11-25)"
   xmlns:inkscape="http://www.inkscape.org/namespaces/inkscape"
   xmlns:sodipodi="http://sodipodi.sourceforge.net/DTD/sodipodi-0.dtd"
   xmlns="http://www.w3.org/2000/svg"
   xmlns:svg="http://www.w3.org/2000/svg"><sodipodi:namedview
     id="namedview1"
     pagecolor="#ffffff"
     bordercolor="#000000"
     borderopacity="0.25"
     inkscape:showpageshadow="2"
     inkscape:pageopacity="0.0"
     inkscape:pagecheckerboard="0"
     inkscape:deskcolor="#d1d1d1"
     inkscape:document-units="mm"
     inkscape:zoom="5.9234715"
     inkscape:cx="52.080946"
     inkscape:cy="38.153302"
     inkscape:window-width="1854"
     inkscape:window-height="1011"
     inkscape:window-x="0"
     inkscape:window-y="0"
     inkscape:window-maximized="1"
     inkscape:current-layer="g1" /><defs
     id="defs1" /><g
     id="layer1"
     transform="translate(-84.510477,-150.61032)"><g
       id="g1"
       transform="translate(6.3397248,11.527857)"><path
         style="fill:#aaced6"
         d="m 80.76697,147.63297 c 0.190996,-0.0764 0.419199,-0.067 0.507118,0.0209 0.08792,0.0879 -0.06835,0.15045 -0.347266,0.13896 -0.308224,-0.0127 -0.370919,-0.0754 -0.159852,-0.15985 z m 2.38125,0 c 0.190996,-0.0764 0.419199,-0.067 0.507118,0.0209 0.08792,0.0879 -0.06835,0.15045 -0.347266,0.13896 -0.308224,-0.0127 -0.370919,-0.0754 -0.159852,-0.15985 z m 15.610417,0 c 0.190996,-0.0764 0.419199,-0.067 0.507118,0.0209 0.08792,0.0879 -0.06835,0.15045 -0.347266,0.13896 -0.308224,-0.0127 -0.370919,-0.0754 -0.159852,-0.15985 z m 2.381253,0 c 0.19099,-0.0764 0.4192,-0.067 0.50711,0.0209 0.0879,0.0879 -0.0684,0.15045 -0.34726,0.13896 -0.30823,-0.0127 -0.37092,-0.0754 -0.15985,-0.15985 z M 84.719183,147.3739 c 0.181901,-0.0734 0.479558,-0.0734 0.661459,0 0.181901,0.0734 0.03307,0.13345 -0.330729,0.13345 -0.363803,0 -0.512631,-0.06 -0.33073,-0.13345 z m 12.170834,0 c 0.181901,-0.0734 0.479557,-0.0734 0.661458,0 0.181901,0.0734 0.03307,0.13345 -0.330729,0.13345 -0.363802,0 -0.51263,-0.06 -0.330729,-0.13345 z m -9.918237,-0.27922 c 0.402183,-0.0608 0.997495,-0.0592 1.322916,0.004 0.325421,0.0628 -0.0036,0.11256 -0.731242,0.11058 -0.727604,-0.002 -0.993857,-0.0534 -0.591674,-0.11419 z m 7.14375,0 c 0.402183,-0.0608 0.997495,-0.0592 1.322916,0.004 0.325421,0.0628 -0.0036,0.11256 -0.731242,0.11058 -0.727604,-0.002 -0.993857,-0.0534 -0.591674,-0.11419 z m -15.547909,-0.3393 c -0.08994,-0.14553 -0.03743,-0.26459 0.116677,-0.26459 0.154109,0 0.280198,0.11906 0.280198,0.26459 0,0.14552 -0.0525,0.26458 -0.116677,0.26458 -0.06417,0 -0.190261,-0.11906 -0.280198,-0.26458 z m 24.738539,0 c 0,-0.14553 0.12609,-0.26459 0.2802,-0.26459 0.15411,0 0.20661,0.11906 0.11668,0.26459 -0.0899,0.14552 -0.21603,0.26458 -0.2802,0.26458 -0.0642,0 -0.11668,-0.11906 -0.11668,-0.26458 z"
         id="path7" /><path
         style="fill:#80b7c3"
         d="m 89.466976,147.02883 c -1.263194,-0.55422 -1.292502,-0.55485 -4.497917,-0.0976 -2.962372,0.42263 -3.340125,0.42629 -4.615501,0.0448 -1.621511,-0.48502 -1.815023,-0.73318 -0.396875,-0.50895 0.641837,0.10148 2.066596,-0.0925 4.034896,-0.54924 2.407242,-0.55866 3.401885,-0.67111 4.7625,-0.53846 2.141046,0.20875 2.621454,0.20875 4.7625,0 1.360615,-0.13265 2.355259,-0.0202 4.7625,0.53846 1.968301,0.45678 3.393061,0.65072 4.034901,0.54924 1.41814,-0.22423 1.22463,0.0239 -0.39688,0.50895 -1.27536,0.38148 -1.65313,0.37782 -4.615002,-0.0447 l -3.225939,-0.46023 -1.409382,0.58416 c -1.657191,0.68686 -1.572402,0.68756 -3.199801,-0.0264 z"
         id="path6" /><path
         style="fill:#689aa5"
         d="m 80.353558,146.83757 c 0.254662,-0.0666 0.671381,-0.0666 0.926042,0 0.254661,0.0666 0.0463,0.121 -0.463021,0.121 -0.509323,0 -0.717682,-0.0545 -0.463021,-0.121 z m 20.637502,0 c 0.25466,-0.0666 0.67138,-0.0666 0.92604,0 0.25466,0.0666 0.0463,0.121 -0.46302,0.121 -0.50932,0 -0.71768,-0.0545 -0.46302,-0.121 z m -18.63659,-0.26294 c 0.190996,-0.0764 0.419199,-0.067 0.507118,0.0209 0.08792,0.0879 -0.06835,0.15046 -0.347266,0.13897 -0.308224,-0.0127 -0.370919,-0.0754 -0.159852,-0.15986 z m 17.197917,0 c 0.190996,-0.0764 0.419199,-0.067 0.507113,0.0209 0.0879,0.0879 -0.06835,0.15046 -0.347261,0.13897 -0.308224,-0.0127 -0.370919,-0.0754 -0.159852,-0.15986 z m -20.428346,-0.30432 c -0.07495,-0.12127 0.03185,-0.22049 0.23733,-0.22049 0.205479,0 0.312277,0.0992 0.23733,0.22049 -0.07495,0.12126 -0.181746,0.22048 -0.23733,0.22048 -0.05558,0 -0.162383,-0.0992 -0.23733,-0.22048 z m 23.547919,0 c -0.075,-0.12127 0.0319,-0.22049 0.23733,-0.22049 0.20548,0 0.31227,0.0992 0.23733,0.22049 -0.075,0.12126 -0.18175,0.22048 -0.23733,0.22048 -0.0556,0 -0.16238,-0.0992 -0.23733,-0.22048 z m -18.200823,-0.22484 c 0.190996,-0.0764 0.419199,-0.067 0.507118,0.0209 0.08792,0.0879 -0.06835,0.15045 -0.347266,0.13896 -0.308225,-0.0127 -0.370919,-0.0754 -0.159852,-0.15985 z m 12.964583,0 c 0.190996,-0.0764 0.419199,-0.067 0.507118,0.0209 0.08792,0.0879 -0.06835,0.15045 -0.347266,0.13896 -0.308224,-0.0127 -0.370919,-0.0754 -0.159852,-0.15985 z M 85.512933,145.7864 c 0.181901,-0.0734 0.479558,-0.0734 0.661459,0 0.181901,0.0734 0.03307,0.13345 -0.330729,0.13345 -0.363803,0 -0.512631,-0.06 -0.33073,-0.13345 z m 10.583334,0 c 0.181901,-0.0734 0.479557,-0.0734 0.661458,0 0.181901,0.0734 0.03307,0.13345 -0.330729,0.13345 -0.363802,0 -0.51263,-0.06 -0.330729,-0.13345 z m -8.595321,-0.27922 c 0.402184,-0.0608 0.997496,-0.0592 1.322917,0.004 0.325421,0.0628 -0.0036,0.11256 -0.731242,0.11058 -0.727604,-0.002 -0.993858,-0.0534 -0.591675,-0.11419 z m 6.085417,0 c 0.402183,-0.0608 0.997496,-0.0592 1.322917,0.004 0.325421,0.0628 -0.0036,0.11256 -0.731242,0.11058 -0.727605,-0.002 -0.993858,-0.0534 -0.591675,-0.11419 z"
         id="path4" /><path
         style="fill:#998f74"
         d="m 86.0421,139.17181 c 0.181901,-0.0734 0.479557,-0.0734 0.661458,0 0.181901,0.0734 0.03307,0.13346 -0.330729,0.13346 -0.363802,0 -0.51263,-0.0601 -0.330729,-0.13346 z m 9.525,0 c 0.181901,-0.0734 0.479557,-0.0734 0.661458,0 0.181901,0.0734 0.03307,0.13346 -0.330729,0.13346 -0.363802,0 -0.51263,-0.0601 -0.330729,-0.13346 z"
         id="path3" /><path
         style="fill:#10434f"
         d="m 79.544191,146.41938 c -0.218775,-0.2636 -0.06639,-0.31573 0.707351,-0.24194 0.761342,0.0726 1.310012,-0.10717 2.406397,-0.78849 1.292266,-0.80303 1.601008,-0.88135 3.427439,-0.86945 1.114823,0.007 2.28358,0.16468 2.628783,0.35407 0.80382,0.441 4.038516,0.441 4.842337,0 0.345203,-0.18939 1.51396,-0.34681 2.628782,-0.35407 1.826432,-0.0119 2.135173,0.0664 3.427439,0.86945 1.096381,0.68132 1.645051,0.8611 2.406401,0.78849 0.77374,-0.0738 0.92612,-0.0217 0.70735,0.24194 -0.40236,0.48482 -1.93338,0.41397 -4.267901,-0.1975 -2.976571,-0.77964 -4.861392,-0.91643 -6.198761,-0.44986 -0.993702,0.34667 -1.255255,0.34667 -2.248958,0 -1.337368,-0.46657 -3.222189,-0.32978 -6.198761,0.44986 -2.334519,0.61147 -3.865539,0.68232 -4.267898,0.1975 z"
         id="path2" /><path
         style="fill:#4d3d0d"
         d="m 81.271561,144.57256 c -1.110591,-1.9106 -2.042482,-3.86595 -2.042482,-4.28564 0,-0.22035 0.327422,-0.4922 0.727604,-0.60411 0.949177,-0.26544 21.408117,-0.26544 22.357297,0 0.40045,0.11199 0.7276,0.39124 0.7276,0.62106 0,0.41425 -1.83289,4.11019 -2.4713,4.98327 -0.31075,0.42497 -0.40138,0.41426 -1.378057,-0.16292 -0.853253,-0.50423 -1.410223,-0.6154 -3.02981,-0.60472 -1.096089,0.007 -2.262602,0.16572 -2.605915,0.35407 -0.803821,0.441 -4.038517,0.441 -4.842337,0 -0.343314,-0.18835 -1.509826,-0.34685 -2.605915,-0.35407 -1.598573,-0.0105 -2.180217,0.10266 -2.991686,0.58223 -0.554021,0.32742 -1.048723,0.59531 -1.099338,0.59531 -0.05062,0 -0.386162,-0.50601 -0.745661,-1.12448 z"
         id="path1" /></g></g></svg>
