<svg class="border shadow-md dark:border-slate-700" viewBox="0 0 786.72 786.72" xmlns="http://www.w3.org/2000/svg" preserveAspectRatio="none" style="width: 786.72px; height: 786.72px;"><rect class="bg" id="bg" x="0" y="0" width="786.72" height="786.72" fill="#ffffff"/><path d="M 0 -78.672 L 0 -78.67&#10;                L 52.45 -39.34&#10;                L 157.344 -78.67 L 157.344 -78.67&#10;                L 213.34 -39.34&#10;                L 314.688 -78.67 L 314.688 -78.67&#10;                L 382.69 -39.34&#10;                L 472.032 -78.67 L 472.032 -78.67&#10;                L 524.48 -39.34&#10;                L 629.376 -78.67 L 629.376 -78.67&#10;                L 681.82 -5.67&#10;                L 786.72 -78.67 L 786.72 -78.67&#10;                L 882.72 -39.34&#10;                L 944.0640000000001 -78.67  V 786.72 H 0 V -78.67 Z" fill="#52FAE3"/><path d="M 0 0 L 0 0.00&#10;                L 85.00 39.34&#10;                L 157.344 0.00 L 157.344 0.00&#10;                L 228.34 39.34&#10;                L 314.688 0.00 L 314.688 0.00&#10;                L 399.69 39.34&#10;                L 472.032 0.00 L 472.032 0.00&#10;                L 587.03 39.34&#10;                L 629.376 0.00 L 629.376 0.00&#10;                L 681.82 70.00&#10;                L 786.72 0.00 L 786.72 0.00&#10;                L 839.17 52.00&#10;                L 944.0640000000001 0.00  V 786.72 H 0 V 0.00 Z" fill="#4be7d6"/><path d="M 0 78.672 L 0 78.67&#10;                L 78.00 118.01&#10;                L 157.344 78.67 L 157.344 78.67&#10;                L 209.79 118.01&#10;                L 314.688 78.67 L 314.688 78.67&#10;                L 389.69 118.01&#10;                L 472.032 78.67 L 472.032 78.67&#10;                L 524.48 137.67&#10;                L 629.376 78.67 L 629.376 78.67&#10;                L 689.38 118.01&#10;                L 786.72 78.67 L 786.72 78.67&#10;                L 849.72 118.01&#10;                L 944.0640000000001 78.67  V 786.72 H 0 V 78.67 Z" fill="#44d4c9"/><path d="M 0 157.344 L 0 157.34&#10;                L 91.00 196.68&#10;                L 157.344 157.34 L 157.344 157.34&#10;                L 212.34 196.68&#10;                L 314.688 157.34 L 314.688 157.34&#10;                L 389.69 211.34&#10;                L 472.032 157.34 L 472.032 157.34&#10;                L 524.48 208.34&#10;                L 629.376 157.34 L 629.376 157.34&#10;                L 681.82 231.34&#10;                L 786.72 157.34 L 786.72 157.34&#10;                L 839.17 196.68&#10;                L 944.0640000000001 157.34  V 786.72 H 0 V 157.34 Z" fill="#3dc1bc"/><path d="M 0 236.016 L 0 236.02&#10;                L 52.45 275.35&#10;                L 157.344 236.02 L 157.344 236.02&#10;                L 209.79 275.35&#10;                L 314.688 236.02 L 314.688 236.02&#10;                L 412.69 275.35&#10;                L 472.032 236.02 L 472.032 236.02&#10;                L 524.48 311.02&#10;                L 629.376 236.02 L 629.376 236.02&#10;                L 735.38 275.35&#10;                L 786.72 236.02 L 786.72 236.02&#10;                L 863.72 289.02&#10;                L 944.0640000000001 236.02  V 786.72 H 0 V 236.02 Z" fill="#36aeaf"/><path d="M 0 314.688 L 0 314.69&#10;                L 112.00 376.69&#10;                L 157.344 314.69 L 157.344 314.69&#10;                L 223.34 354.02&#10;                L 314.688 314.69 L 314.688 314.69&#10;                L 397.69 354.02&#10;                L 472.032 314.69 L 472.032 314.69&#10;                L 538.03 354.02&#10;                L 629.376 314.69 L 629.376 314.69&#10;                L 742.38 372.69&#10;                L 786.72 314.69 L 786.72 314.69&#10;                L 874.72 357.69&#10;                L 944.0640000000001 314.69  V 786.72 H 0 V 314.69 Z" fill="#2f9ba2"/><path d="M 0 393.36 L 0 393.36&#10;                L 89.00 432.70&#10;                L 157.344 393.36 L 157.344 393.36&#10;                L 224.34 432.70&#10;                L 314.688 393.36 L 314.688 393.36&#10;                L 422.69 432.70&#10;                L 472.032 393.36 L 472.032 393.36&#10;                L 546.03 451.36&#10;                L 629.376 393.36 L 629.376 393.36&#10;                L 681.82 432.70&#10;                L 786.72 393.36 L 786.72 393.36&#10;                L 863.72 432.70&#10;                L 944.0640000000001 393.36  V 786.72 H 0 V 393.36 Z" fill="#288895"/><path d="M 0 472.032 L 0 472.03&#10;                L 52.45 511.37&#10;                L 157.344 472.03 L 157.344 472.03&#10;                L 263.34 511.37&#10;                L 314.688 472.03 L 314.688 472.03&#10;                L 367.14 511.37&#10;                L 472.032 472.03 L 472.032 472.03&#10;                L 524.48 511.37&#10;                L 629.376 472.03 L 629.376 472.03&#10;                L 710.38 511.37&#10;                L 786.72 472.03 L 786.72 472.03&#10;                L 878.72 527.03&#10;                L 944.0640000000001 472.03  V 786.72 H 0 V 472.03 Z" fill="#217588"/><path d="M 0 550.704 L 0 550.70&#10;                L 52.45 590.04&#10;                L 157.344 550.70 L 157.344 550.70&#10;                L 239.34 590.04&#10;                L 314.688 550.70 L 314.688 550.70&#10;                L 393.69 590.04&#10;                L 472.032 550.70 L 472.032 550.70&#10;                L 588.03 590.04&#10;                L 629.376 550.70 L 629.376 550.70&#10;                L 743.38 590.04&#10;                L 786.72 550.70 L 786.72 550.70&#10;                L 839.17 599.70&#10;                L 944.0640000000001 550.70  V 786.72 H 0 V 550.70 Z" fill="#1a627b"/><path d="M 0 629.376 L 0 629.38&#10;                L 81.00 668.71&#10;                L 157.344 629.38 L 157.344 629.38&#10;                L 268.34 668.71&#10;                L 314.688 629.38 L 314.688 629.38&#10;                L 373.69 681.38&#10;                L 472.032 629.38 L 472.032 629.38&#10;                L 582.03 668.71&#10;                L 629.376 629.38 L 629.376 629.38&#10;                L 681.82 668.71&#10;                L 786.72 629.38 L 786.72 629.38&#10;                L 878.72 668.71&#10;                L 944.0640000000001 629.38  V 786.72 H 0 V 629.38 Z" fill="#134f6e"/><path d="M 0 708.048 L 0 708.05&#10;                L 89.00 749.05&#10;                L 157.344 708.05 L 157.344 708.05&#10;                L 209.79 770.05&#10;                L 314.688 708.05 L 314.688 708.05&#10;                L 367.14 747.38&#10;                L 472.032 708.05 L 472.032 708.05&#10;                L 530.03 747.38&#10;                L 629.376 708.05 L 629.376 708.05&#10;                L 681.82 759.05&#10;                L 786.72 708.05 L 786.72 708.05&#10;                L 842.72 757.05&#10;                L 944.0640000000001 708.05  V 786.72 H 0 V 708.05 Z" fill="#0c3c61"/></svg>