<?xml version="1.0" encoding="UTF-8" standalone="no"?>
<!-- Created with Inkscape (http://www.inkscape.org/) -->

<svg
   width="508.00003mm"
   height="285.74997mm"
   viewBox="0 0 508.00003 285.74997"
   version="1.1"
   id="svg1"
   xmlns:xlink="http://www.w3.org/1999/xlink"
   xmlns="http://www.w3.org/2000/svg"
   xmlns:svg="http://www.w3.org/2000/svg">
  <defs
     id="defs1">
    <linearGradient
       id="linearGradient13">
      <stop
         style="stop-color:#80b3ff;stop-opacity:1;"
         offset="0"
         id="stop13" />
      <stop
         style="stop-color:#aaccff;stop-opacity:1"
         offset="1"
         id="stop14" />
    </linearGradient>
    <linearGradient
       id="linearGradient11">
      <stop
         style="stop-color:#5599ff;stop-opacity:1;"
         offset="0"
         id="stop11" />
      <stop
         style="stop-color:#80b3ff;stop-opacity:1"
         offset="1"
         id="stop12" />
    </linearGradient>
    <linearGradient
       id="linearGradient9">
      <stop
         style="stop-color:#2a7fff;stop-opacity:1;"
         offset="0"
         id="stop9" />
      <stop
         style="stop-color:#5599ff;stop-opacity:1"
         offset="1"
         id="stop10" />
    </linearGradient>
    <linearGradient
       id="linearGradient7">
      <stop
         style="stop-color:#0066ff;stop-opacity:1;"
         offset="0"
         id="stop7" />
      <stop
         style="stop-color:#2a7fff;stop-opacity:1"
         offset="1"
         id="stop8" />
    </linearGradient>
    <linearGradient
       id="linearGradient5">
      <stop
         style="stop-color:#0055d4;stop-opacity:1;"
         offset="0"
         id="stop5" />
      <stop
         style="stop-color:#0066ff;stop-opacity:1"
         offset="1"
         id="stop6" />
    </linearGradient>
    <linearGradient
       id="linearGradient3">
      <stop
         style="stop-color:#0044aa;stop-opacity:1;"
         offset="0"
         id="stop3" />
      <stop
         style="stop-color:#0055d4;stop-opacity:1"
         offset="1"
         id="stop4" />
    </linearGradient>
    <linearGradient
       id="linearGradient1">
      <stop
         style="stop-color:#003380;stop-opacity:1;"
         offset="0"
         id="stop1" />
      <stop
         style="stop-color:#0044aa;stop-opacity:1"
         offset="1"
         id="stop2" />
    </linearGradient>
    <linearGradient
       xlink:href="#linearGradient1"
       id="linearGradient2"
       x1="-290.60242"
       y1="887.69043"
       x2="-290.60242"
       y2="965.65045"
       gradientUnits="userSpaceOnUse"
       gradientTransform="matrix(1.2516653,0,0,1,123.41379,0)" />
    <linearGradient
       xlink:href="#linearGradient3"
       id="linearGradient4"
       x1="-421.20932"
       y1="813.73669"
       x2="-421.20932"
       y2="924.5495"
       gradientUnits="userSpaceOnUse"
       gradientTransform="matrix(1.2516653,0,0,1,123.41379,0)" />
    <linearGradient
       xlink:href="#linearGradient5"
       id="linearGradient6"
       x1="-489.10379"
       y1="764.12756"
       x2="-489.10379"
       y2="871.36658"
       gradientUnits="userSpaceOnUse"
       gradientTransform="matrix(1.2516653,0,0,1,123.41379,0)" />
    <linearGradient
       xlink:href="#linearGradient7"
       id="linearGradient8"
       x1="-414.80487"
       y1="717.12982"
       x2="-414.80487"
       y2="819.99292"
       gradientUnits="userSpaceOnUse"
       gradientTransform="matrix(1.2516653,0,0,1,123.41379,0)" />
    <linearGradient
       xlink:href="#linearGradient9"
       id="linearGradient10"
       x1="-488.12302"
       y1="665.56323"
       x2="-488.12302"
       y2="763.62402"
       gradientUnits="userSpaceOnUse"
       gradientTransform="matrix(1.2516653,0,0,1,123.41379,0)" />
    <linearGradient
       xlink:href="#linearGradient11"
       id="linearGradient12"
       x1="-427.64017"
       y1="614.15912"
       x2="-427.64017"
       y2="721.81433"
       gradientUnits="userSpaceOnUse"
       gradientTransform="matrix(1.2516653,0,0,1,123.41379,0)" />
    <linearGradient
       xlink:href="#linearGradient13"
       id="linearGradient14"
       x1="-471.04788"
       y1="587.71686"
       x2="-471.04788"
       y2="711.44012"
       gradientUnits="userSpaceOnUse"
       gradientTransform="matrix(1.2516653,0,0,1,123.41379,0)" />
  </defs>
  <g
     id="layer1"
     transform="translate(950.7867,-463.898)">
    <g
       id="g14"
       transform="matrix(0.81481613,0,0,0.74089837,-551.21023,33.585637)">
      <path
         style="fill:url(#linearGradient14);fill-opacity:1;stroke-width:0.813882"
         d="M -490.38853,765.45828 V 580.7981 h 623.45354 v 196.34435 c 0,0 -36.687684,-82.76798 -96.808675,-52.34151 -48.411542,24.50048 -84.986229,34.15243 -128.230453,31.43709 -46.397492,-2.91334 -66.461962,-40.61817 -135.348002,-50.86684 -69.12204,-10.2838 -69.17852,40.26443 -132.26311,69.14848 -75.24782,34.45313 -130.8033,-9.06139 -130.8033,-9.06139 z"
         id="path1-61-2-7-2" />
      <path
         style="fill:url(#linearGradient12);fill-opacity:1;stroke-width:0.585753"
         d="m -490.38853,626.63627 v 95.64877 H 133.06501 V 620.5842 c 0,0 -36.687684,42.87148 -96.808675,27.11143 -48.411542,-12.69056 -84.986229,-17.69 -128.230453,-16.28353 -46.397492,1.50903 -66.461962,21.03907 -135.348002,26.34759 -69.12204,5.32672 -69.17852,-20.85584 -132.26311,-35.81696 -75.24782,-17.84575 -130.8033,4.69354 -130.8033,4.69354 z"
         id="path1-61-2-8" />
      <path
         style="fill:url(#linearGradient10);fill-opacity:1;stroke-width:0.513515"
         d="M -490.38853,661.42682 V 767.15679 H 133.06501 V 688.9939 c 0,0 -57.635805,9.57849 -114.471425,-7.49736 -38.670832,-11.61837 -73.890379,34.35098 -115.096616,36.74201 -53.649519,3.11306 -98.286559,-42.49133 -156.932219,-30.03569 -65.62781,13.93856 -105.79193,15.94071 -152.30534,0.76694 -44.19433,-14.41723 -84.64794,-27.54298 -84.64794,-27.54298 z"
         id="path1-61-9" />
      <path
         style="fill:url(#linearGradient8);fill-opacity:1;stroke-width:0.54164"
         d="m -490.38853,725.45059 v 94.81196 H 133.06501 V 717.84231 c 0,0 -56.770529,35.33399 -87.098255,38.40152 -82.730453,8.36785 -119.677549,-20.75997 -165.346785,-22.11231 -73.07663,-2.16392 -75.62571,13.84427 -136.06818,9.05109 -65.31264,-5.17938 -94.38444,-29.19433 -144.61952,-29.90994 -57.1006,-0.8134 -90.3208,12.17792 -90.3208,12.17792 z"
         id="path1-6-7" />
      <path
         style="fill:url(#linearGradient6);fill-opacity:1;stroke-width:0.590263"
         d="m -490.38853,758.90598 v 112.59826 h 623.45354 v -72.25143 c 0,0 -55.799988,-14.66341 -84.434711,-13.29222 -41.5231213,1.98837 -77.083315,30.62963 -118.680297,30.82118 -56.898752,0.26202 -102.493012,-34.96881 -162.935482,-40.66116 -65.31265,-6.15102 -114.55717,15.80149 -164.79226,14.95164 -57.10059,-0.966 -92.61079,-32.16627 -92.61079,-32.16627 z"
         id="path1-7-3" />
      <path
         style="fill:url(#linearGradient4);fill-opacity:1;stroke-width:0.592021"
         d="m -490.38853,839.09212 v 87.41241 H 133.06501 V 822.61599 c 0,0 -29.01222,41.26728 -74.677479,44.5225 -40.986783,2.92172 -77.789254,-22.90667 -147.181868,-25.10813 -75.037123,-2.38052 -113.254193,18.09399 -173.696663,12.36769 -65.31265,-6.1877 -93.6677,-42.77222 -143.90279,-43.62714 -57.1006,-0.97176 -83.99474,28.32121 -83.99474,28.32121 z"
         id="path1-2-6" />
      <path
         style="fill:url(#linearGradient2);fill-opacity:1;stroke-width:0.513515"
         d="m -490.38853,881.25742 v 85.22111 h 623.45354 v -78.16289 c 0,0 -56.553741,16.78603 -87.098255,20.62008 -43.9812667,5.52066 -90.139361,6.41463 -134.700099,2.95925 -58.794826,-4.55912 -109.817936,-26.58022 -170.260406,-30.88853 -65.31265,-4.65546 -95.14946,19.63461 -145.38454,18.99139 -57.1006,-0.73112 -86.01024,-18.74041 -86.01024,-18.74041 z"
         id="path1-1" />
    </g>
  </g>
</svg>
